<?xml version="1.0" encoding="UTF-8" standalone="no"?>
<!-- Generator: Adobe Illustrator 19.1.0, SVG Export Plug-In . SVG Version: 6.00 Build 0)  -->

<svg
   xmlns:dc="http://purl.org/dc/elements/1.1/"
   xmlns:cc="http://creativecommons.org/ns#"
   xmlns:rdf="http://www.w3.org/1999/02/22-rdf-syntax-ns#"
   xmlns:svg="http://www.w3.org/2000/svg"
   xmlns="http://www.w3.org/2000/svg"
   xmlns:sodipodi="http://sodipodi.sourceforge.net/DTD/sodipodi-0.dtd"
   xmlns:inkscape="http://www.inkscape.org/namespaces/inkscape"
   version="1.1"
   x="0px"
   y="0px"
   viewBox="0 0 64 64"
   style="enable-background:new 0 0 64 64;"
   xml:space="preserve"
   id="svg22"
   sodipodi:docname="arrow_up.svg"
   inkscape:version="0.92.4 (5da689c313, 2019-01-14)"><metadata
   id="metadata28"><rdf:RDF><cc:Work
       rdf:about=""><dc:format>image/svg+xml</dc:format><dc:type
         rdf:resource="http://purl.org/dc/dcmitype/StillImage" /><dc:title></dc:title></cc:Work></rdf:RDF></metadata><defs
   id="defs26" /><sodipodi:namedview
   pagecolor="#ffffff"
   bordercolor="#666666"
   borderopacity="1"
   objecttolerance="10"
   gridtolerance="10"
   guidetolerance="10"
   inkscape:pageopacity="0"
   inkscape:pageshadow="2"
   inkscape:window-width="1920"
   inkscape:window-height="1017"
   id="namedview24"
   showgrid="false"
   inkscape:zoom="3.6875"
   inkscape:cx="32"
   inkscape:cy="32"
   inkscape:window-x="-8"
   inkscape:window-y="-8"
   inkscape:window-maximized="1"
   inkscape:current-layer="svg22" />
<style
   type="text/css"
   id="style2">
	.st0{fill:#76C2AF;}
	.st1{opacity:0.2;}
	.st2{fill:#231F20;}
	.st3{fill:#FFFFFF;}
</style>
<g
   id="Layer_1"
   transform="matrix(1,0,0,-1,0,64)">
	<g
   id="g6">
		<circle
   class="st0"
   cx="32"
   cy="32"
   r="32"
   id="circle4"
   style="fill:#76c2af" />
	</g>
	<g
   class="st1"
   id="g10"
   style="opacity:0.2">
		<path
   class="st2"
   d="M 47.8,30 H 40 V 18 c 0,-2.2 -1.8,-4 -4,-4 h -8 c -2.2,0 -4,1.8 -4,4 v 12 h -7.8 c -2.7,0 -3.5,1.9 -1.7,4.1 l 14.3,18.1 c 1.8,2.3 4.7,2.3 6.5,0 L 49.6,34.1 c 1.7,-2.2 1,-4.1 -1.8,-4.1 z"
   id="path8"
   inkscape:connector-curvature="0"
   style="fill:#231f20" />
	</g>
	<g
   id="g14">
		<path
   class="st3"
   d="m 24,16 c 0,-2.2 1.8,-4 4,-4 h 8 c 2.2,0 4,1.8 4,4 v 24 c 0,2.2 -1.8,4 -4,4 h -8 c -2.2,0 -4,-1.8 -4,-4 z"
   id="path12"
   inkscape:connector-curvature="0"
   style="fill:#ffffff" />
	</g>
	<g
   id="g18">
		<path
   class="st3"
   d="m 47.8,28 c 2.7,0 3.5,1.9 1.7,4.1 L 35.3,50.3 c -1.8,2.3 -4.7,2.3 -6.5,0 L 14.5,32.1 C 12.7,29.8 13.5,28 16.2,28 Z"
   id="path16"
   inkscape:connector-curvature="0"
   style="fill:#ffffff" />
	</g>
</g>
<g
   id="Layer_2">
</g>
</svg>