<?xml version="1.0" encoding="UTF-8" standalone="no"?>
<!-- Generator: Adobe Illustrator 19.0.0, SVG Export Plug-In . SVG Version: 6.00 Build 0)  -->

<svg
   xmlns:dc="http://purl.org/dc/elements/1.1/"
   xmlns:cc="http://creativecommons.org/ns#"
   xmlns:rdf="http://www.w3.org/1999/02/22-rdf-syntax-ns#"
   xmlns:svg="http://www.w3.org/2000/svg"
   xmlns="http://www.w3.org/2000/svg"
   xmlns:sodipodi="http://sodipodi.sourceforge.net/DTD/sodipodi-0.dtd"
   xmlns:inkscape="http://www.inkscape.org/namespaces/inkscape"
   version="1.1"
   id="Layer_1"
   x="0px"
   y="0px"
   viewBox="0 0 471.836 471.836"
   style="enable-background:new 0 0 471.836 471.836;"
   xml:space="preserve"
   sodipodi:docname="palette.svg"
   inkscape:version="0.92.4 (5da689c313, 2019-01-14)"><metadata
   id="metadata83"><rdf:RDF><cc:Work
       rdf:about=""><dc:format>image/svg+xml</dc:format><dc:type
         rdf:resource="http://purl.org/dc/dcmitype/StillImage" /></cc:Work></rdf:RDF></metadata><defs
   id="defs81" /><sodipodi:namedview
   pagecolor="#ffffff"
   bordercolor="#666666"
   borderopacity="1"
   objecttolerance="10"
   gridtolerance="10"
   guidetolerance="10"
   inkscape:pageopacity="0"
   inkscape:pageshadow="2"
   inkscape:window-width="1920"
   inkscape:window-height="1017"
   id="namedview79"
   showgrid="false"
   inkscape:zoom="0.35367628"
   inkscape:cx="105.69214"
   inkscape:cy="54.837813"
   inkscape:window-x="-8"
   inkscape:window-y="-8"
   inkscape:window-maximized="1"
   inkscape:current-layer="Layer_1" />

<path
   style="fill:#dfcc6b;stroke-width:1.47805274"
   d="m 334.39295,165.99604 c -41.13569,-4.48589 -50.13408,9.35164 -87.80817,-3.96561 C 221.50962,153.15915 241.80033,82.341214 183.53696,75.091355 92.957454,63.819732 28.743452,110.78485 6.2622696,210.01984 -20.190441,326.79635 54.046237,443.12502 172.06136,469.86595 290.08831,496.60098 407.20773,423.6369 433.65454,306.84264 452.00603,225.869 412.3351,174.46823 334.39295,165.99604 Z M 152.2451,189.01376 c -7.50998,18.2569 -30.33556,26.16449 -50.96916,17.65829 -20.633621,-8.50028 -31.263777,-30.18036 -23.747879,-48.44761 7.515898,-18.23917 30.339989,-26.15415 50.975079,-17.64795 20.63954,8.50175 31.26969,30.18627 23.74196,48.43727 z"
   id="path4"
   inkscape:connector-curvature="0" />
<path
   style="fill:#eedd7a;stroke-width:1.47805274"
   d="m 329.68091,159.70692 c -41.14161,-4.47407 -50.13999,9.35164 -87.80816,-3.96561 C 216.79167,146.87595 237.08829,76.058001 178.81902,68.806685 88.239516,57.53505 24.031421,104.49573 1.5487593,203.7396 -24.909863,320.50577 49.326814,436.84035 167.34785,463.5798 285.36889,490.31481 402.49422,417.33891 428.94693,300.55648 447.29844,219.59171 407.62308,168.17469 329.68091,159.70692 Z m -182.14783,23.02364 c -7.50998,18.24508 -30.33555,26.15413 -50.969177,17.65829 -20.635093,-8.49437 -31.263771,-30.1907 -23.741961,-48.45353 7.515899,-18.24508 30.335558,-26.15414 50.969178,-17.64794 20.63952,8.50175 31.26968,30.19366 23.74196,48.44318 z"
   id="path6"
   inkscape:connector-curvature="0" />
<g
   id="g12"
   transform="matrix(1.4780529,0,0,1.4780529,-146.65116,-91.19549)">
	<path
   style="fill:#dbc55e"
   d="m 182.972,152.555 c -13.957,-5.751 -29.395,-0.4 -34.484,11.94 -5.089,12.355 2.103,27.034 16.063,32.782 13.957,5.747 29.399,0.393 34.484,-11.947 5.093,-12.348 -2.099,-27.024 -16.063,-32.775 z m 11.173,30.765 c -4.101,9.949 -16.554,14.267 -27.816,9.628 -11.251,-4.632 -17.055,-16.464 -12.95,-26.424 4.105,-9.961 16.554,-14.275 27.809,-9.643 11.262,4.647 17.058,16.478 12.957,26.439 z"
   id="path8"
   inkscape:connector-curvature="0" />
	<path
   style="fill:#dbc55e"
   d="m 186.16,156.81 c -13.957,-5.755 -29.399,-0.397 -34.488,11.94 -5.085,12.359 2.107,27.027 16.067,32.778 13.957,5.755 29.399,0.4 34.484,-11.947 5.093,-12.349 -2.099,-27.02 -16.063,-32.771 z m 11.173,30.749 c -4.101,9.957 -16.55,14.275 -27.813,9.643 -11.255,-4.636 -17.055,-16.471 -12.95,-26.428 4.105,-9.961 16.55,-14.279 27.805,-9.639 11.259,4.632 17.055,16.471 12.958,26.424 z"
   id="path10"
   inkscape:connector-curvature="0" />
</g>
<path
   style="fill:#f1e089;stroke-width:1.47805274"
   d="M 241.87275,155.74278 C 216.79167,146.87743 245.0417,83.165962 178.81902,68.808154 89.611143,49.461924 24.031421,104.49722 1.5487593,203.74108 -21.087619,303.65596 29.998319,403.23829 119.13376,446.65313 134.18331,453.99166 279.54241,169.06005 241.87275,155.74278 Z m -94.33967,26.98778 c -7.50998,18.24508 -30.33555,26.15413 -50.969177,17.65829 -20.635093,-8.49437 -31.263771,-30.1907 -23.741961,-48.45353 7.515899,-18.24508 30.335558,-26.15414 50.969178,-17.64794 20.63952,8.50175 31.26968,30.19366 23.74196,48.44318 z"
   id="path14"
   inkscape:connector-curvature="0" />
<path
   style="fill:#dbc55e;stroke-width:1.47805274"
   d="m 408.6577,258.86949 c 5.09338,17.11141 -13.17388,39.12257 -34.616,33.22662 -18.89247,-5.19387 -37.98299,-13.65425 -36.26845,-31.42487 3.09652,-32.03237 15.04362,-32.75217 34.616,-33.2488 19.58272,-0.48628 30.96964,13.61729 36.26845,31.44705 z"
   id="path16"
   inkscape:connector-curvature="0" />
<path
   style="fill:#e84849;stroke-width:1.47805274"
   d="m 402.73367,254.24023 c 6.62611,13.61583 -5.62991,34.57166 -24.38934,32.59697 -16.52021,-1.73081 -33.6804,-6.16644 -34.69286,-21.29283 -1.84757,-27.23165 8.05834,-29.47828 24.379,-32.60289 16.31475,-3.11868 27.80217,7.10796 34.7032,21.29875 z"
   id="path18"
   inkscape:connector-curvature="0" />
<path
   style="fill:#dbc55e;stroke-width:1.47805274"
   d="m 374.34618,350.2235 c 0.72426,17.83566 -22.38806,34.68693 -41.72838,23.70352 -17.03456,-9.67828 -33.46459,-22.55951 -27.42527,-39.3768 10.8563,-30.27348 22.62012,-28.03422 41.71656,-23.70354 19.09645,4.32923 26.67886,20.80508 27.43709,39.37682 z"
   id="path20"
   inkscape:connector-curvature="0" />
<path
   style="fill:#e79e2d;stroke-width:1.47805274"
   d="m 369.73319,344.28911 c 3.08026,14.84408 -13.94249,32.13731 -31.65693,25.60135 -15.59642,-5.74076 -31.13667,-14.24694 -28.40523,-29.16198 4.90566,-26.84587 15.05397,-26.58573 31.65103,-25.60136 16.58227,0.97849 25.20966,13.71486 28.41113,29.16199 z"
   id="path22"
   inkscape:connector-curvature="0" />
<path
   style="fill:#dbc55e;stroke-width:1.47805274"
   d="m 283.90562,418.67951 c -10.08772,14.73914 -38.68065,14.40658 -47.61843,-5.9403 -7.86472,-17.94651 -13.33943,-38.09976 1.54901,-47.97168 26.81187,-17.78098 34.89237,-8.95404 47.6125,5.9403 12.72456,14.88842 8.94222,32.61323 -1.54308,47.97168 z"
   id="path24"
   inkscape:connector-curvature="0" />
<path
   style="fill:#dac425;stroke-width:1.47805274"
   d="m 283.75043,411.15326 c -6.40441,13.7385 -30.39025,17.42181 -40.6775,1.60961 -9.07081,-13.92031 -16.44186,-30.05326 -5.33725,-40.36711 19.98179,-18.57764 27.96771,-12.3107 40.67157,-1.60959 12.70979,10.70109 12.01363,26.0758 5.34318,40.36709 z"
   id="path26"
   inkscape:connector-curvature="0" />
<path
   style="fill:#dbc55e;stroke-width:1.47805274"
   d="m 183.82518,419.91811 c -12.97435,12.28853 -40.85929,5.9403 -45.28902,-15.83437 -3.90945,-19.20138 -5.01059,-40.05819 11.6308,-46.56162 29.95274,-11.72982 35.99208,-1.38198 45.28459,15.84473 9.29547,17.24 1.86825,33.77645 -11.62637,46.55126 z"
   id="path28"
   inkscape:connector-curvature="0" />
<path
   style="fill:#6cc077;stroke-width:1.47805274"
   d="m 185.26332,412.54559 c -9.15801,12.07274 -33.38182,10.63016 -40.10696,-7.00746 -5.92847,-15.51806 -9.73297,-32.83493 3.30788,-40.58879 23.43896,-13.94839 29.93058,-6.13392 40.09662,7.0237 10.15275,13.13693 6.23148,28.00762 -3.29754,40.57255 z"
   id="path30"
   inkscape:connector-curvature="0" />
<path
   style="fill:#276d69;stroke-width:1.47805274"
   d="m 227.50016,190.0144 c 36.76656,-30.70064 39.21126,-12.38905 50.12373,-1.48248 10.71293,10.70109 28.19977,13.10145 -1.47658,50.1178 -29.53888,36.86116 -114.28303,65.64771 -114.28303,65.64771 0,0 29.42211,-84.03025 65.63588,-114.28303 z"
   id="path32"
   inkscape:connector-curvature="0" />
<path
   style="fill:#355957;stroke-width:1.47805274"
   d="m 277.62241,188.53783 c 10.71293,10.70109 28.19977,13.10145 -1.47657,50.11781 -29.53889,36.86115 -114.28304,65.6477 -114.28304,65.6477 z"
   id="path34"
   inkscape:connector-curvature="0" />
<path
   style="fill:#e79e2d;stroke-width:1.47805274"
   d="m 260.93668,171.11158 c -4.80663,4.80071 26.62416,37.55288 32.09887,32.09296 L 475.96378,47.819811 478.7514,45.38693 c -0.0324,-0.04433 -0.0725,-0.08866 -0.10489,-0.127105 -0.65331,0.591221 -1.25044,1.145486 -1.70272,1.597773 L 293.1804,203.05527 c -2.74918,2.7536 -11.97962,-4.05874 -19.92711,-12.16144 0,0 132.66116,-132.66557 177.61317,-177.613159 C 440.92803,3.160443 430.3703,-6.3301342 419.27012,-15.179236 l -2.95314,3.356658 z"
   id="path36"
   inkscape:connector-curvature="0" />
<path
   style="fill:#d68a28;stroke-width:1.47805274"
   d="m 273.25329,190.89383 c 7.94749,8.1027 17.17202,14.91652 19.92711,12.16144 L 476.95409,46.857598 c 0.45376,-0.453768 1.04498,-1.006552 1.70272,-1.597773 C 470.03532,34.044356 460.77088,23.359512 450.8768,13.282149 405.91445,58.222346 273.25329,190.89383 273.25329,190.89383 Z"
   id="path38"
   inkscape:connector-curvature="0" />
<path
   style="fill:#cdcccb;stroke-width:1.47805274"
   d="M 292.95869,203.27696 441.06549,78.59139 385.54983,23.075726 260.87016,171.18844 c -4.56274,4.54649 26.89023,37.27057 32.08853,32.08852 z"
   id="path40"
   inkscape:connector-curvature="0" />
<path
   style="fill:#b1b1b2;stroke-width:1.47805274"
   d="M 292.95869,203.27696 441.06549,78.59139 413.27958,50.817304 c 0,0 -141.12743,138.959116 -140.02186,140.066196 8.01991,8.02434 17.10107,14.98745 19.70097,12.39346 z"
   id="path42"
   inkscape:connector-curvature="0" />
<path
   style="fill:#bfbebe;stroke-width:1.47805274"
   d="M 322.22119,175.11562 429.71848,88.059791 377.86986,32.235219 287.56823,140.19663 c -3.48081,3.45568 30.70359,38.86243 34.65296,34.91899 z"
   id="path44"
   inkscape:connector-curvature="0" />
<path
   style="fill:#aaaaaa;stroke-width:1.47805274"
   d="M 292.95869,203.27696 431.83505,86.361509 404.71278,59.239245 c 0,0 -132.26799,130.829835 -131.46097,131.642775 8.02582,8.02582 17.10698,14.98893 19.70688,12.39494 z"
   id="path46"
   inkscape:connector-curvature="0" />
<g
   id="g48">
</g>
<g
   id="g50">
</g>
<g
   id="g52">
</g>
<g
   id="g54">
</g>
<g
   id="g56">
</g>
<g
   id="g58">
</g>
<g
   id="g60">
</g>
<g
   id="g62">
</g>
<g
   id="g64">
</g>
<g
   id="g66">
</g>
<g
   id="g68">
</g>
<g
   id="g70">
</g>
<g
   id="g72">
</g>
<g
   id="g74">
</g>
<g
   id="g76">
</g>
</svg>