<svg height="479pt" viewBox="0 -5 479.464 479" width="479pt" xmlns="http://www.w3.org/2000/svg"><path d="m471.464844 470.160156h-399.464844c-4.417969 0-8-3.582031-8-8 0-4.417968 3.582031-8 8-8h399.464844c4.417968 0 8 3.582032 8 8 0 4.417969-3.582032 8-8 8zm0 0" fill="#7d8d9c"/><path d="m40.472656 470.160156h-32.472656c-4.417969 0-8-3.582031-8-8 0-4.417968 3.582031-8 8-8h32.472656c4.417969 0 8 3.582032 8 8 0 4.417969-3.582031 8-8 8zm0 0" fill="#7d8d9c"/><path d="m471.441406 462.160156-79.28125-30.957031-64.160156-25.042969-32.640625-32.636718 87.28125-88.722657 33.359375 33.359375 24.800781 64.402344zm0 0" fill="#d3843d"/><path d="m416 318.160156-50.59375-6.894531.265625 45.105469-45.105469-.265625 7.433594 50.054687-256-256 88-88zm0 0" fill="#dd3e46"/><path d="m471.441406 462.160156-79.28125-30.957031 48.640625-48.640625zm0 0" fill="#5a6470"/><path d="m40.003906 118.164062 88-88 32 32-88 88zm0 0" fill="#7d8ea0"/><path d="m72.003906 150.164062 87.996094-88 32 32-87.996094 88zm0 0" fill="#5a6470"/><path d="m127.472656 30.691406-87.472656 87.46875s-55.945312-38.039062-16.183594-79.796875l23.855469-23.859375c38.273437-39.765625 79.800781 16.1875 79.800781 16.1875zm0 0" fill="#cfdfe8"/><path d="m304 334.160156c-2.121094 0-4.15625-.84375-5.65625-2.34375l-168-168c-3.03125-3.136718-2.988281-8.128906.097656-11.214844 3.085938-3.085937 8.074219-3.128906 11.214844-.097656l168 168c2.285156 2.289063 2.972656 5.730469 1.734375 8.71875-1.238281 2.988282-4.15625 4.9375-7.390625 4.9375zm0 0" fill="#ffd782"/><path d="m288 254.160156c-2.121094 0-4.15625-.84375-5.65625-2.34375l-120-120c-3.03125-3.136718-2.988281-8.128906.097656-11.214844 3.085938-3.085937 8.074219-3.128906 11.214844-.097656l120 120c2.285156 2.289063 2.972656 5.730469 1.734375 8.71875-1.238281 2.988282-4.15625 4.9375-7.390625 4.9375zm0 0" fill="#ffd782"/><g fill="#7d8d9c"><path d="m376 230.160156c-2.121094 0-4.15625-.84375-5.65625-2.34375l-120-120c-3.03125-3.136718-2.988281-8.128906.097656-11.214844 3.085938-3.085937 8.074219-3.128906 11.214844-.097656l120 120c2.285156 2.289063 2.972656 5.730469 1.734375 8.71875-1.238281 2.988282-4.15625 4.9375-7.390625 4.9375zm0 0"/><path d="m400 206.160156c-2.121094 0-4.15625-.84375-5.65625-2.34375l-64-64c-3.03125-3.136718-2.988281-8.128906.097656-11.214844 3.085938-3.085937 8.074219-3.128906 11.214844-.097656l64 64c2.285156 2.289063 2.972656 5.730469 1.734375 8.71875-1.238281 2.988282-4.15625 4.9375-7.390625 4.9375zm0 0"/></g></svg>