ply
format ascii 1.0
element vertex 360
property float x
property float y
property float z
element face 702
property list uint8 int32 vertex_indices
end_header
125 515 26
125.542 517.776 27.1716
125.767 518.926 30
125.542 517.776 32.8284
125 515 34
124.458 512.224 32.8284
124.233 511.074 30
124.458 512.224 27.1716
125 515 26
125.491 514.904 26
126.033 517.68 27.1716
126.258 518.83 30
126.033 517.68 32.8284
125.491 514.904 34
124.948 512.128 32.8284
124.724 510.978 30
124.948 512.128 27.1716
125.491 514.904 26
125.981 514.808 26
126.524 517.584 27.1716
126.749 518.734 30
126.524 517.584 32.8284
125.981 514.808 34
125.439 512.032 32.8284
125.214 510.882 30
125.439 512.032 27.1716
125.981 514.808 26
126.472 514.712 26
127.014 517.488 27.1716
127.239 518.638 30
127.014 517.488 32.8284
126.472 514.712 34
125.93 511.936 32.8284
125.706 510.786 30
125.93 511.936 27.1716
126.472 514.712 26
126.963 514.617 26
127.392 517.412 27.1716
127.57 518.57 30
127.392 517.412 32.8284
126.963 514.617 34
126.534 511.821 32.8284
126.356 510.663 30
126.534 511.821 27.1716
126.963 514.617 26
127.457 514.541 26
127.793 517.349 27.1716
127.932 518.512 30
127.793 517.349 32.8284
127.457 514.541 34
127.12 511.732 32.8284
126.981 510.569 30
127.12 511.732 27.1716
127.457 514.541 26
127.953 514.481 26
128.29 517.29 27.1716
128.429 518.453 30
128.29 517.29 32.8284
127.953 514.481 34
127.617 511.673 32.8284
127.477 510.51 30
127.617 511.673 27.1716
127.953 514.481 26
128.45 514.422 26
128.786 517.23 27.1716
128.925 518.393 30
128.786 517.23 32.8284
128.45 514.422 34
128.113 511.613 32.8284
127.974 510.45 30
128.113 511.613 27.1716
128.45 514.422 26
128.946 514.362 26
129.283 517.171 27.1716
129.422 518.334 30
129.283 517.171 32.8284
128.946 514.362 34
128.609 511.554 32.8284
128.47 510.391 30
128.609 511.554 27.1716
128.946 514.362 26
129.443 514.303 26
129.779 517.111 27.1716
129.918 518.274 30
129.779 517.111 32.8284
129.443 514.303 34
129.106 511.494 32.8284
128.967 510.331 30
129.106 511.494 27.1716
129.443 514.303 26
129.939 514.243 26
130.094 517.068 27.1716
130.158 518.237 30
130.094 517.068 32.8284
129.939 514.243 34
129.784 511.419 32.8284
129.72 510.249 30
129.784 511.419 27.1716
129.939 514.243 26
130.438 514.216 26
130.593 517.04 27.1716
130.657 518.21 30
130.593 517.04 32.8284
130.438 514.216 34
130.284 511.392 32.8284
130.22 510.222 30
130.284 511.392 27.1716
130.438 514.216 26
130.938 514.189 26
131.092 517.013 27.1716
131.156 518.183 30
131.092 517.013 32.8284
130.938 514.189 34
130.783 511.364 32.8284
130.719 510.195 30
130.783 511.364 27.1716
130.938 514.189 26
131.437 514.161 26
131.591 516.985 27.1716
131.656 518.155 30
131.591 516.985 32.8284
131.437 514.161 34
131.282 511.337 32.8284
131.218 510.167 30
131.282 511.337 27.1716
131.437 514.161 26
131.936 514.134 26
132.091 516.958 27.1716
132.155 518.128 30
132.091 516.958 32.8284
131.936 514.134 34
131.781 511.31 32.8284
131.717 510.14 30
131.781 511.31 27.1716
131.936 514.134 26
132.435 514.107 26
132.59 516.931 27.1716
132.654 518.101 30
132.59 516.931 32.8284
132.435 514.107 34
132.281 511.282 32.8284
132.217 510.113 30
132.281 511.282 27.1716
132.435 514.107 26
132.935 514.079 26
133.015 516.906 27.1716
133.049 518.078 30
133.015 516.906 32.8284
132.935 514.079 34
132.854 511.252 32.8284
132.82 510.081 30
132.854 511.252 27.1716
132.935 514.079 26
133.434 514.065 26
133.484 516.893 27.1716
133.505 518.064 30
133.484 516.893 32.8284
133.434 514.065 34
133.384 511.237 32.8284
133.363 510.066 30
133.384 511.237 27.1716
133.434 514.065 26
133.934 514.056 26
133.984 516.884 27.1716
134.005 518.055 30
133.984 516.884 32.8284
133.934 514.056 34
133.884 511.228 32.8284
133.863 510.057 30
133.884 511.228 27.1716
133.934 514.056 26
134.434 514.047 26
134.484 516.875 27.1716
134.505 518.047 30
134.484 516.875 32.8284
134.434 514.047 34
134.384 511.219 32.8284
134.363 510.048 30
134.384 511.219 27.1716
134.434 514.047 26
134.934 514.038 26
134.984 516.866 27.1716
135.005 518.038 30
134.984 516.866 32.8284
134.934 514.038 34
134.884 511.21 32.8284
134.863 510.039 30
134.884 511.21 27.1716
134.934 514.038 26
135.434 514.029 26
135.484 516.857 27.1716
135.505 518.029 30
135.484 516.857 32.8284
135.434 514.029 34
135.384 511.202 32.8284
135.363 510.03 30
135.384 511.202 27.1716
135.434 514.029 26
135.934 514.021 26
135.973 516.849 27.1716
135.99 518.02 30
135.973 516.849 32.8284
135.934 514.021 34
135.895 511.192 32.8284
135.878 510.021 30
135.895 511.192 27.1716
135.934 514.021 26
136.434 514.014 26
136.445 516.842 27.1716
136.449 518.014 30
136.445 516.842 32.8284
136.434 514.014 34
136.423 511.185 32.8284
136.418 510.014 30
136.423 511.185 27.1716
136.434 514.014 26
136.934 514.012 26
136.945 516.84 27.1716
136.949 518.012 30
136.945 516.84 32.8284
136.934 514.012 34
136.923 511.183 32.8284
136.918 510.012 30
136.923 511.183 27.1716
136.934 514.012 26
137.434 514.01 26
137.445 516.838 27.1716
137.449 518.01 30
137.445 516.838 32.8284
137.434 514.01 34
137.423 511.181 32.8284
137.418 510.01 30
137.423 511.181 27.1716
137.434 514.01 26
137.934 514.008 26
137.945 516.836 27.1716
137.949 518.008 30
137.945 516.836 32.8284
137.934 514.008 34
137.923 511.179 32.8284
137.918 510.008 30
137.923 511.179 27.1716
137.934 514.008 26
138.434 514.006 26
138.445 516.834 27.1716
138.449 518.006 30
138.445 516.834 32.8284
138.434 514.006 34
138.423 511.177 32.8284
138.418 510.006 30
138.423 511.177 27.1716
138.434 514.006 26
138.934 514.004 26
138.945 516.832 27.1716
138.949 518.004 30
138.945 516.832 32.8284
138.934 514.004 34
138.923 511.176 32.8284
138.918 510.004 30
138.923 511.176 27.1716
138.934 514.004 26
139.434 514.002 26
139.435 516.83 27.1716
139.436 518.002 30
139.435 516.83 32.8284
139.434 514.002 34
139.432 511.174 32.8284
139.432 510.002 30
139.432 511.174 27.1716
139.434 514.002 26
139.934 514.002 26
139.935 516.83 27.1716
139.936 518.002 30
139.935 516.83 32.8284
139.934 514.002 34
139.932 511.173 32.8284
139.932 510.002 30
139.932 511.173 27.1716
139.934 514.002 26
140.434 514.001 26
140.435 516.83 27.1716
140.436 518.001 30
140.435 516.83 32.8284
140.434 514.001 34
140.432 511.173 32.8284
140.432 510.001 30
140.432 511.173 27.1716
140.434 514.001 26
140.934 514.001 26
140.935 516.829 27.1716
140.936 518.001 30
140.935 516.829 32.8284
140.934 514.001 34
140.932 511.173 32.8284
140.932 510.001 30
140.932 511.173 27.1716
140.934 514.001 26
141.434 514.001 26
141.435 516.829 27.1716
141.436 518.001 30
141.435 516.829 32.8284
141.434 514.001 34
141.432 511.172 32.8284
141.432 510.001 30
141.432 511.172 27.1716
141.434 514.001 26
141.934 514 26
141.935 516.829 27.1716
141.936 518 30
141.935 516.829 32.8284
141.934 514 34
141.932 511.172 32.8284
141.932 510 30
141.932 511.172 27.1716
141.934 514 26
142.434 514 26
142.434 516.829 27.1716
142.434 518 30
142.434 516.829 32.8284
142.434 514 34
142.434 511.172 32.8284
142.434 510 30
142.434 511.172 27.1716
142.434 514 26
142.934 514 26
142.934 516.829 27.1716
142.934 518 30
142.934 516.829 32.8284
142.934 514 34
142.934 511.172 32.8284
142.934 510 30
142.934 511.172 27.1716
142.934 514 26
143.434 514 26
143.434 516.829 27.1716
143.434 518 30
143.434 516.829 32.8284
143.434 514 34
143.434 511.172 32.8284
143.434 510 30
143.434 511.172 27.1716
143.434 514 26
143.934 514 26
143.934 516.828 27.1716
143.934 518 30
143.934 516.828 32.8284
143.934 514 34
143.934 511.172 32.8284
143.934 510 30
143.934 511.172 27.1716
143.934 514 26
144.434 514 26
144.434 516.828 27.1716
144.434 518 30
144.434 516.828 32.8284
144.434 514 34
144.434 511.172 32.8284
144.434 510 30
144.434 511.172 27.1716
144.434 514 26
3 0 1 10
3 0 10 9
3 1 2 11
3 1 11 10
3 2 3 12
3 2 12 11
3 3 4 13
3 3 13 12
3 4 5 14
3 4 14 13
3 5 6 15
3 5 15 14
3 6 7 16
3 6 16 15
3 7 8 17
3 7 17 16
3 8 0 9
3 8 9 17
3 9 10 19
3 9 19 18
3 10 11 20
3 10 20 19
3 11 12 21
3 11 21 20
3 12 13 22
3 12 22 21
3 13 14 23
3 13 23 22
3 14 15 24
3 14 24 23
3 15 16 25
3 15 25 24
3 16 17 26
3 16 26 25
3 17 9 18
3 17 18 26
3 18 19 28
3 18 28 27
3 19 20 29
3 19 29 28
3 20 21 30
3 20 30 29
3 21 22 31
3 21 31 30
3 22 23 32
3 22 32 31
3 23 24 33
3 23 33 32
3 24 25 34
3 24 34 33
3 25 26 35
3 25 35 34
3 26 18 27
3 26 27 35
3 27 28 37
3 27 37 36
3 28 29 38
3 28 38 37
3 29 30 39
3 29 39 38
3 30 31 40
3 30 40 39
3 31 32 41
3 31 41 40
3 32 33 42
3 32 42 41
3 33 34 43
3 33 43 42
3 34 35 44
3 34 44 43
3 35 27 36
3 35 36 44
3 36 37 46
3 36 46 45
3 37 38 47
3 37 47 46
3 38 39 48
3 38 48 47
3 39 40 49
3 39 49 48
3 40 41 50
3 40 50 49
3 41 42 51
3 41 51 50
3 42 43 52
3 42 52 51
3 43 44 53
3 43 53 52
3 44 36 45
3 44 45 53
3 45 46 55
3 45 55 54
3 46 47 56
3 46 56 55
3 47 48 57
3 47 57 56
3 48 49 58
3 48 58 57
3 49 50 59
3 49 59 58
3 50 51 60
3 50 60 59
3 51 52 61
3 51 61 60
3 52 53 62
3 52 62 61
3 53 45 54
3 53 54 62
3 54 55 64
3 54 64 63
3 55 56 65
3 55 65 64
3 56 57 66
3 56 66 65
3 57 58 67
3 57 67 66
3 58 59 68
3 58 68 67
3 59 60 69
3 59 69 68
3 60 61 70
3 60 70 69
3 61 62 71
3 61 71 70
3 62 54 63
3 62 63 71
3 63 64 73
3 63 73 72
3 64 65 74
3 64 74 73
3 65 66 75
3 65 75 74
3 66 67 76
3 66 76 75
3 67 68 77
3 67 77 76
3 68 69 78
3 68 78 77
3 69 70 79
3 69 79 78
3 70 71 80
3 70 80 79
3 71 63 72
3 71 72 80
3 72 73 82
3 72 82 81
3 73 74 83
3 73 83 82
3 74 75 84
3 74 84 83
3 75 76 85
3 75 85 84
3 76 77 86
3 76 86 85
3 77 78 87
3 77 87 86
3 78 79 88
3 78 88 87
3 79 80 89
3 79 89 88
3 80 72 81
3 80 81 89
3 81 82 91
3 81 91 90
3 82 83 92
3 82 92 91
3 83 84 93
3 83 93 92
3 84 85 94
3 84 94 93
3 85 86 95
3 85 95 94
3 86 87 96
3 86 96 95
3 87 88 97
3 87 97 96
3 88 89 98
3 88 98 97
3 89 81 90
3 89 90 98
3 90 91 100
3 90 100 99
3 91 92 101
3 91 101 100
3 92 93 102
3 92 102 101
3 93 94 103
3 93 103 102
3 94 95 104
3 94 104 103
3 95 96 105
3 95 105 104
3 96 97 106
3 96 106 105
3 97 98 107
3 97 107 106
3 98 90 99
3 98 99 107
3 99 100 109
3 99 109 108
3 100 101 110
3 100 110 109
3 101 102 111
3 101 111 110
3 102 103 112
3 102 112 111
3 103 104 113
3 103 113 112
3 104 105 114
3 104 114 113
3 105 106 115
3 105 115 114
3 106 107 116
3 106 116 115
3 107 99 108
3 107 108 116
3 108 109 118
3 108 118 117
3 109 110 119
3 109 119 118
3 110 111 120
3 110 120 119
3 111 112 121
3 111 121 120
3 112 113 122
3 112 122 121
3 113 114 123
3 113 123 122
3 114 115 124
3 114 124 123
3 115 116 125
3 115 125 124
3 116 108 117
3 116 117 125
3 117 118 127
3 117 127 126
3 118 119 128
3 118 128 127
3 119 120 129
3 119 129 128
3 120 121 130
3 120 130 129
3 121 122 131
3 121 131 130
3 122 123 132
3 122 132 131
3 123 124 133
3 123 133 132
3 124 125 134
3 124 134 133
3 125 117 126
3 125 126 134
3 126 127 136
3 126 136 135
3 127 128 137
3 127 137 136
3 128 129 138
3 128 138 137
3 129 130 139
3 129 139 138
3 130 131 140
3 130 140 139
3 131 132 141
3 131 141 140
3 132 133 142
3 132 142 141
3 133 134 143
3 133 143 142
3 134 126 135
3 134 135 143
3 135 136 145
3 135 145 144
3 136 137 146
3 136 146 145
3 137 138 147
3 137 147 146
3 138 139 148
3 138 148 147
3 139 140 149
3 139 149 148
3 140 141 150
3 140 150 149
3 141 142 151
3 141 151 150
3 142 143 152
3 142 152 151
3 143 135 144
3 143 144 152
3 144 145 154
3 144 154 153
3 145 146 155
3 145 155 154
3 146 147 156
3 146 156 155
3 147 148 157
3 147 157 156
3 148 149 158
3 148 158 157
3 149 150 159
3 149 159 158
3 150 151 160
3 150 160 159
3 151 152 161
3 151 161 160
3 152 144 153
3 152 153 161
3 153 154 163
3 153 163 162
3 154 155 164
3 154 164 163
3 155 156 165
3 155 165 164
3 156 157 166
3 156 166 165
3 157 158 167
3 157 167 166
3 158 159 168
3 158 168 167
3 159 160 169
3 159 169 168
3 160 161 170
3 160 170 169
3 161 153 162
3 161 162 170
3 162 163 172
3 162 172 171
3 163 164 173
3 163 173 172
3 164 165 174
3 164 174 173
3 165 166 175
3 165 175 174
3 166 167 176
3 166 176 175
3 167 168 177
3 167 177 176
3 168 169 178
3 168 178 177
3 169 170 179
3 169 179 178
3 170 162 171
3 170 171 179
3 171 172 181
3 171 181 180
3 172 173 182
3 172 182 181
3 173 174 183
3 173 183 182
3 174 175 184
3 174 184 183
3 175 176 185
3 175 185 184
3 176 177 186
3 176 186 185
3 177 178 187
3 177 187 186
3 178 179 188
3 178 188 187
3 179 171 180
3 179 180 188
3 180 181 190
3 180 190 189
3 181 182 191
3 181 191 190
3 182 183 192
3 182 192 191
3 183 184 193
3 183 193 192
3 184 185 194
3 184 194 193
3 185 186 195
3 185 195 194
3 186 187 196
3 186 196 195
3 187 188 197
3 187 197 196
3 188 180 189
3 188 189 197
3 189 190 199
3 189 199 198
3 190 191 200
3 190 200 199
3 191 192 201
3 191 201 200
3 192 193 202
3 192 202 201
3 193 194 203
3 193 203 202
3 194 195 204
3 194 204 203
3 195 196 205
3 195 205 204
3 196 197 206
3 196 206 205
3 197 189 198
3 197 198 206
3 198 199 208
3 198 208 207
3 199 200 209
3 199 209 208
3 200 201 210
3 200 210 209
3 201 202 211
3 201 211 210
3 202 203 212
3 202 212 211
3 203 204 213
3 203 213 212
3 204 205 214
3 204 214 213
3 205 206 215
3 205 215 214
3 206 198 207
3 206 207 215
3 207 208 217
3 207 217 216
3 208 209 218
3 208 218 217
3 209 210 219
3 209 219 218
3 210 211 220
3 210 220 219
3 211 212 221
3 211 221 220
3 212 213 222
3 212 222 221
3 213 214 223
3 213 223 222
3 214 215 224
3 214 224 223
3 215 207 216
3 215 216 224
3 216 217 226
3 216 226 225
3 217 218 227
3 217 227 226
3 218 219 228
3 218 228 227
3 219 220 229
3 219 229 228
3 220 221 230
3 220 230 229
3 221 222 231
3 221 231 230
3 222 223 232
3 222 232 231
3 223 224 233
3 223 233 232
3 224 216 225
3 224 225 233
3 225 226 235
3 225 235 234
3 226 227 236
3 226 236 235
3 227 228 237
3 227 237 236
3 228 229 238
3 228 238 237
3 229 230 239
3 229 239 238
3 230 231 240
3 230 240 239
3 231 232 241
3 231 241 240
3 232 233 242
3 232 242 241
3 233 225 234
3 233 234 242
3 234 235 244
3 234 244 243
3 235 236 245
3 235 245 244
3 236 237 246
3 236 246 245
3 237 238 247
3 237 247 246
3 238 239 248
3 238 248 247
3 239 240 249
3 239 249 248
3 240 241 250
3 240 250 249
3 241 242 251
3 241 251 250
3 242 234 243
3 242 243 251
3 243 244 253
3 243 253 252
3 244 245 254
3 244 254 253
3 245 246 255
3 245 255 254
3 246 247 256
3 246 256 255
3 247 248 257
3 247 257 256
3 248 249 258
3 248 258 257
3 249 250 259
3 249 259 258
3 250 251 260
3 250 260 259
3 251 243 252
3 251 252 260
3 252 253 262
3 252 262 261
3 253 254 263
3 253 263 262
3 254 255 264
3 254 264 263
3 255 256 265
3 255 265 264
3 256 257 266
3 256 266 265
3 257 258 267
3 257 267 266
3 258 259 268
3 258 268 267
3 259 260 269
3 259 269 268
3 260 252 261
3 260 261 269
3 261 262 271
3 261 271 270
3 262 263 272
3 262 272 271
3 263 264 273
3 263 273 272
3 264 265 274
3 264 274 273
3 265 266 275
3 265 275 274
3 266 267 276
3 266 276 275
3 267 268 277
3 267 277 276
3 268 269 278
3 268 278 277
3 269 261 270
3 269 270 278
3 270 271 280
3 270 280 279
3 271 272 281
3 271 281 280
3 272 273 282
3 272 282 281
3 273 274 283
3 273 283 282
3 274 275 284
3 274 284 283
3 275 276 285
3 275 285 284
3 276 277 286
3 276 286 285
3 277 278 287
3 277 287 286
3 278 270 279
3 278 279 287
3 279 280 289
3 279 289 288
3 280 281 290
3 280 290 289
3 281 282 291
3 281 291 290
3 282 283 292
3 282 292 291
3 283 284 293
3 283 293 292
3 284 285 294
3 284 294 293
3 285 286 295
3 285 295 294
3 286 287 296
3 286 296 295
3 287 279 288
3 287 288 296
3 288 289 298
3 288 298 297
3 289 290 299
3 289 299 298
3 290 291 300
3 290 300 299
3 291 292 301
3 291 301 300
3 292 293 302
3 292 302 301
3 293 294 303
3 293 303 302
3 294 295 304
3 294 304 303
3 295 296 305
3 295 305 304
3 296 288 297
3 296 297 305
3 297 298 307
3 297 307 306
3 298 299 308
3 298 308 307
3 299 300 309
3 299 309 308
3 300 301 310
3 300 310 309
3 301 302 311
3 301 311 310
3 302 303 312
3 302 312 311
3 303 304 313
3 303 313 312
3 304 305 314
3 304 314 313
3 305 297 306
3 305 306 314
3 306 307 316
3 306 316 315
3 307 308 317
3 307 317 316
3 308 309 318
3 308 318 317
3 309 310 319
3 309 319 318
3 310 311 320
3 310 320 319
3 311 312 321
3 311 321 320
3 312 313 322
3 312 322 321
3 313 314 323
3 313 323 322
3 314 306 315
3 314 315 323
3 315 316 325
3 315 325 324
3 316 317 326
3 316 326 325
3 317 318 327
3 317 327 326
3 318 319 328
3 318 328 327
3 319 320 329
3 319 329 328
3 320 321 330
3 320 330 329
3 321 322 331
3 321 331 330
3 322 323 332
3 322 332 331
3 323 315 324
3 323 324 332
3 324 325 334
3 324 334 333
3 325 326 335
3 325 335 334
3 326 327 336
3 326 336 335
3 327 328 337
3 327 337 336
3 328 329 338
3 328 338 337
3 329 330 339
3 329 339 338
3 330 331 340
3 330 340 339
3 331 332 341
3 331 341 340
3 332 324 333
3 332 333 341
3 333 334 343
3 333 343 342
3 334 335 344
3 334 344 343
3 335 336 345
3 335 345 344
3 336 337 346
3 336 346 345
3 337 338 347
3 337 347 346
3 338 339 348
3 338 348 347
3 339 340 349
3 339 349 348
3 340 341 350
3 340 350 349
3 341 333 342
3 341 342 350
3 342 343 352
3 342 352 351
3 343 344 353
3 343 353 352
3 344 345 354
3 344 354 353
3 345 346 355
3 345 355 354
3 346 347 356
3 346 356 355
3 347 348 357
3 347 357 356
3 348 349 358
3 348 358 357
3 349 350 359
3 349 359 358
3 350 342 351
3 350 351 359
